<svg data-v-d3f97b9e="" xmlns="http://www.w3.org/2000/svg" viewBox="0 0 254.47291700969055 60"><!----><!----><!----><g data-v-d3f97b9e="" id="a74cc4a2-ccfb-456b-9e96-ab1d6164107c" fill="black" transform="matrix(5.6980053264473165,0,0,5.6980053264473165,-5.52706910925491,-22.735042022120943)"><path d="M0.97 14.35L3.04 14.35L3.04 9.59C3.04 8.86 3.65 8.51 4.26 8.51C4.93 8.51 5.26 8.96 5.26 9.91L5.26 14.35L7.34 14.35L7.34 9.59C7.34 8.86 7.94 8.51 8.55 8.51C9.24 8.51 9.56 8.96 9.56 9.91L9.56 14.35L11.63 14.35L11.63 9.74C11.63 7.90 10.85 6.83 9.44 6.83C8.32 6.83 7.46 7.49 7.20 8.32L7.15 8.32C6.83 7.35 6.10 6.83 5.10 6.83C4.00 6.83 3.39 7.46 3.12 8.25L3.04 8.25L3.04 7.00L0.97 7.00ZM17.00 14.52C18.55 14.52 19.53 13.93 20.09 13.24L18.97 12.03C18.52 12.56 17.92 12.92 17.07 12.92C15.96 12.92 15.36 12.29 15.36 11.37L15.36 11.24L20.30 11.24L20.30 10.63C20.30 8.37 18.97 6.96 16.81 6.96C14.64 6.96 13.30 8.40 13.30 10.77C13.30 13.08 14.57 14.52 17.00 14.52ZM16.83 8.44C17.72 8.44 18.27 9.03 18.27 9.97L18.27 10.08L15.36 10.08L15.36 9.97C15.36 9.04 15.93 8.44 16.83 8.44ZM21.95 12.74L21.95 14.35L28.45 14.35L28.45 12.74L26.24 12.74L26.24 3.99L21.95 3.99L21.95 5.60L24.16 5.60L24.16 12.74ZM30.35 12.74L30.35 14.35L36.85 14.35L36.85 12.74L34.64 12.74L34.64 3.99L30.35 3.99L30.35 5.60L32.56 5.60L32.56 12.74ZM42 14.52C44.25 14.52 45.63 13.08 45.63 10.74C45.63 8.40 44.25 6.96 42 6.96C39.75 6.96 38.37 8.40 38.37 10.74C38.37 13.08 39.75 14.52 42 14.52ZM42 12.98C41.08 12.98 40.52 12.38 40.52 11.31L40.52 10.16C40.52 9.10 41.08 8.50 42 8.50C42.92 8.50 43.48 9.10 43.48 10.16L43.48 11.31C43.48 12.38 42.92 12.98 42 12.98Z"></path></g><!----><!----></svg>